<svg width="32" height="32" viewBox="0 0 32 32" fill="none" xmlns="http://www.w3.org/2000/svg">
  <rect width="32" height="32" rx="8" fill="#6366F1"/>
  <path d="M23 12H21V10C21 9.46957 20.7893 8.96086 20.4142 8.58579C20.0391 8.21071 19.5304 8 19 8H13C12.4696 8 11.9609 8.21071 11.5858 8.58579C11.2107 8.96086 11 9.46957 11 10V12H9C8.46957 12 7.96086 12.2107 7.58579 12.5858C7.21071 12.9609 7 13.4696 7 14V22C7 22.5304 7.21071 23.0391 7.58579 23.4142C7.96086 23.7893 8.46957 24 9 24H23C23.5304 24 24.0391 23.7893 24.4142 23.4142C24.7893 23.0391 25 22.5304 25 22V14C25 13.4696 24.7893 12.9609 24.4142 12.5858C24.0391 12.2107 23.5304 12 23 12ZM13 10H19V12H13V10ZM23 22H9V14H23V22Z" fill="white"/>
  <path d="M16 16C15.4696 16 14.9609 16.2107 14.5858 16.5858C14.2107 16.9609 14 17.4696 14 18C14 18.5304 14.2107 19.0391 14.5858 19.4142C14.9609 19.7893 15.4696 20 16 20C16.5304 20 17.0391 19.7893 17.4142 19.4142C17.7893 19.0391 18 18.5304 18 18C18 17.4696 17.7893 16.9609 17.4142 16.5858C17.0391 16.2107 16.5304 16 16 16Z" fill="white"/>
</svg> 